<svg xmlns="http://www.w3.org/2000/svg" version="1.1" xmlns:xlink="http://www.w3.org/1999/xlink" xmlns:svgjs="http://svgjs.com/svgjs" width="1920" height="1080" preserveAspectRatio="none" viewBox="0 0 1920 1080"><g mask="url(&quot;#SvgjsMask1072&quot;)" fill="none"><rect width="1920" height="1080" x="0" y="0" fill="rgba(49, 176, 255, 1)"></rect><path d="M0,879.782C164.57,881.892,237.573,666.29,352.461,548.44C439.735,458.916,540,384.043,593.458,271.023C647.401,156.976,662.121,31.643,656.515,-94.393C650.43,-231.193,651.429,-383.307,559.824,-485.09C468.508,-586.552,312.3,-579.254,182.398,-621.19C48.208,-664.51,-74.996,-738.491,-215.974,-735.539C-385.274,-731.994,-593.197,-737.613,-695.67,-602.801C-799.096,-466.735,-714.976,-270.595,-698.707,-100.459C-686.09,31.48,-675.209,163.053,-611.329,279.184C-550.463,389.835,-436.785,450.97,-346.699,539.474C-228.795,655.308,-165.27,877.663,0,879.782" fill="#19a7ff"></path><path d="M1920 1860.112C2072.475 1843.675 2224.511 1836.213 2360.8 1765.899 2506.645 1690.655 2677.428 1604.219 2722.089 1446.3020000000001 2766.746 1288.396 2620.582 1144.286 2581.685 984.864 2547.726 845.681 2595.401 683.979 2508.331 570.2080000000001 2420.177 455.02099999999996 2260.669 434.015 2123.6639999999998 386.384 1979.381 336.222 1830.576 233.96500000000003 1686.408 284.457 1542.317 334.923 1487.586 506.207 1408.562 636.837 1341.99 746.8820000000001 1291.795 860.246 1262.346 985.444 1230.342 1121.503 1206.616 1257.247 1230.223 1395.011 1259.373 1565.125 1270.4769999999999 1771.518 1413.578 1868.008 1556.451 1964.344 1748.675 1878.5810000000001 1920 1860.112" fill="#49b9ff"></path></g><defs><mask id="SvgjsMask1072"><rect width="1920" height="1080" fill="#ffffff"></rect></mask></defs></svg>